<svg width="15" height="25" viewBox="0 0 15 25" fill="none" xmlns="http://www.w3.org/2000/svg">
<path d="M-8.19589e-08 1.875C-6.01032e-08 1.375 0.187501 0.937499 0.562501 0.562499C0.937501 0.187499 1.375 -5.95568e-07 1.875 -5.73712e-07L13.125 -8.19589e-08C13.6042 -6.10138e-08 14.0365 0.1875 14.4219 0.5625C14.8073 0.9375 15 1.375 15 1.875L15 23.125C15 23.625 14.8073 24.0625 14.4219 24.4375C14.0365 24.8125 13.6042 25 13.125 25L1.875 25C1.375 25 0.9375 24.8125 0.5625 24.4375C0.1875 24.0625 -1.03268e-06 23.625 -1.01083e-06 23.125L-8.19589e-08 1.875ZM1.875 1.875L1.875 23.125L13.125 23.125L13.125 19.0625L7.5 19.0625L7.5 17.1875L13.125 17.1875L13.125 13.4375L7.5 13.4375L7.5 11.5625L13.125 11.5625L13.125 7.8125L7.5 7.8125L7.5 5.9375L13.125 5.9375L13.125 1.875L1.875 1.875ZM7.5 5.9375L7.5 7.8125L7.5 5.9375ZM7.5 11.5625L7.5 13.4375L7.5 11.5625ZM7.5 17.1875L7.5 19.0625L7.5 17.1875Z" fill="#1D1D1D"/>
</svg>
