<svg width="48" height="48" viewBox="0 0 48 48" fill="none" xmlns="http://www.w3.org/2000/svg">
<path d="M29.7143 24C29.7143 27.1559 27.1559 29.7143 24 29.7143C20.8441 29.7143 18.2857 27.1559 18.2857 24C18.2857 20.8441 20.8441 18.2857 24 18.2857C27.1559 18.2857 29.7143 20.8441 29.7143 24Z" fill="#D9D9D9"/>
<path fill-rule="evenodd" clip-rule="evenodd" d="M24 48C36.0908 48 46.0933 39.0593 47.7569 27.4286H33.7004C32.2884 31.4235 28.4785 34.2857 24 34.2857C19.5215 34.2857 15.7116 31.4235 14.2996 27.4286H0.243042C1.90669 39.0593 11.9092 48 24 48ZM14.2996 20.5714H0.243042C1.90669 8.94071 11.9092 0 24 0C36.0908 0 46.0933 8.94071 47.7569 20.5714H33.7004C32.2884 16.5765 28.4785 13.7143 24 13.7143C19.5215 13.7143 15.7116 16.5765 14.2996 20.5714ZM29.7143 24C29.7143 27.1559 27.1559 29.7143 24 29.7143C20.8441 29.7143 18.2857 27.1559 18.2857 24C18.2857 20.8441 20.8441 18.2857 24 18.2857C27.1559 18.2857 29.7143 20.8441 29.7143 24Z" fill="#D9D9D9"/>
</svg>
