<svg width="40" height="40" viewBox="0 0 40 40" fill="none" xmlns="http://www.w3.org/2000/svg">
<path d="M18.2803 39.4156L0.573248 21.3636C0.360934 21.1472 0.212315 20.9307 0.127389 20.7143C0.0424633 20.4978 0 20.2597 0 20C0 19.7403 0.0424633 19.5022 0.127389 19.2857C0.212315 19.0693 0.360934 18.8528 0.573248 18.6364L18.3439 0.51948C18.6837 0.17316 19.1083 0 19.6178 0C20.1274 0 20.5732 0.194805 20.9554 0.584415C21.3376 0.974026 21.5287 1.42857 21.5287 1.94805C21.5287 2.46753 21.3376 2.92208 20.9554 3.31169L6.49682 18.0519H38.0892C38.6412 18.0519 39.0977 18.2359 39.4586 18.6039C39.8195 18.9719 40 19.4372 40 20C40 20.5628 39.8195 21.0281 39.4586 21.3961C39.0977 21.7641 38.6412 21.948 38.0892 21.948H6.49682L21.0191 36.7532C21.3588 37.0996 21.5287 37.5325 21.5287 38.0519C21.5287 38.5714 21.3376 39.026 20.9554 39.4156C20.5732 39.8052 20.1274 40 19.6178 40C19.1083 40 18.6624 39.8052 18.2803 39.4156Z" fill="#D9D9D9"/>
</svg>
