<svg width="21" height="24" viewBox="0 0 21 24" fill="none" xmlns="http://www.w3.org/2000/svg">
<path d="M1.86701 21.25H18.3045L16.3358 7.5H3.83576L1.86701 21.25ZM10.0858 5.625C10.6274 5.625 11.0753 5.44271 11.4295 5.07812C11.7837 4.71354 11.9608 4.27083 11.9608 3.75C11.9608 3.20833 11.7837 2.76042 11.4295 2.40625C11.0753 2.05208 10.6274 1.875 10.0858 1.875C9.56492 1.875 9.12221 2.05208 8.75763 2.40625C8.39305 2.76042 8.21076 3.20833 8.21076 3.75C8.21076 4.27083 8.39305 4.71354 8.75763 5.07812C9.12221 5.44271 9.56492 5.625 10.0858 5.625ZM13.3358 5.625H16.3358C16.8149 5.625 17.2316 5.77604 17.5858 6.07812C17.9399 6.38021 18.1483 6.77083 18.2108 7.25L20.1483 21C20.2316 21.5625 20.091 22.0573 19.7264 22.4844C19.3618 22.9115 18.8878 23.125 18.3045 23.125H1.86701C1.28367 23.125 0.809714 22.9115 0.445131 22.4844C0.0805473 22.0573 -0.0600775 21.5625 0.0232558 21L1.96076 7.25C2.02326 6.77083 2.23159 6.38021 2.58576 6.07812C2.93992 5.77604 3.35659 5.625 3.83576 5.625H6.83576C6.66909 5.33333 6.54409 5.03646 6.46076 4.73438C6.37742 4.43229 6.33576 4.10417 6.33576 3.75C6.33576 2.70833 6.70034 1.82292 7.42951 1.09375C8.15867 0.364583 9.04409 0 10.0858 0C11.1274 0 12.0128 0.364583 12.742 1.09375C13.4712 1.82292 13.8358 2.70833 13.8358 3.75C13.8358 4.10417 13.7941 4.43229 13.7108 4.73438C13.6274 5.03646 13.5024 5.33333 13.3358 5.625ZM1.86701 21.25H18.3045H1.86701Z" fill="#1D1D1D"/>
</svg>
